<svg xmlns="http://www.w3.org/2000/svg" viewBox="0 0 256 256">
  <defs>
    <radialGradient id="o" cx="35%" cy="30%" r="70%">
      <stop offset="0" stop-color="#6ec7ff"/>
      <stop offset="1" stop-color="#1f5f9b"/>
    </radialGradient>
  </defs>
  <circle cx="128" cy="128" r="120" fill="url(#o)"/>
  <path d="M58 106c22-30 65-24 78-4 8 12 23 15 30 26 8 14-1 27-14 29-16 3-26-6-40-4-11 2-21 13-34 7-18-9-28-34-20-54z" fill="#4ec26f" opacity=".95"/>
  <path d="M138 66c18-14 44-7 55 8 10 13 9 30-5 41-10 8-23 2-33-6-11-8-24-10-27-22-3-10 2-17 10-21z" fill="#68d18a"/>
</svg>
